<?xml version="1.0" encoding="utf-8"?>
<svg width="1451.1182" height="1046.6545" viewBox="0 0 1451.1182 1046.6545" version="1.1" id="SVGRoot" xmlns="http://www.w3.org/2000/svg">
  <g id="layer1" transform="translate(-175.82611,-15.168569)">
    <g id="g21992">
      <path fill="#020202" opacity="1" stroke="none" d="m 1008.7813,960.57697 c 20.3364,0.0148 40.2702,0.69236 60.1316,-0.21105 15.0987,-0.68601 30.2792,-2.50524 45.1115,-5.40687 20.9436,-4.09658 41.9489,-8.53638 62.2976,-14.85021 31.8591,-9.88507 61.5537,-24.78224 89.6819,-42.80921 25.0162,-16.03246 48.0561,-34.48035 69.433,-55.01996 3.3292,-3.19848 5.1877,-3.06999 8.3866,0.16749 20.7018,20.94869 41.6199,41.68443 62.4604,62.49696 4.0686,4.06319 4.0668,4.08948 -0.1285,8.10202 -43.0564,41.17211 -90.5202,76.12461 -144.7236,101.42206 -28.2469,13.1834 -57.4503,23.9829 -87.9314,30.6525 -22.3337,4.8869 -44.9234,8.7507 -67.5303,12.2202 -30.7195,4.7144 -61.7554,5.2518 -92.7129,3.7085 -51.61459,-2.5731 -102.09181,-11.6886 -150.95611,-28.8738 C 821.55256,1017.8449 783.51766,998.2379 747.9044,973.85105 714.3347,950.86351 683.525,924.64219 655.85619,894.89023 622.97841,859.5369 594.83921,820.74613 572.17482,778.02065 551.02113,738.1426 535.76773,696.18834 526.65034,652.05671 c -5.09007,-24.63795 -8.63843,-49.5382 -9.26167,-74.75095 -0.51647,-20.89303 -1.44676,-41.80052 -1.10146,-62.68364 0.44321,-26.80779 3.2967,-53.43186 8.19168,-79.86112 4.39519,-23.73026 10.37067,-47.00341 18.3005,-69.76189 12.70917,-36.47532 29.27787,-71.08016 50.34944,-103.56701 24.87662,-38.35361 53.72502,-73.38262 86.86538,-104.85706 33.93316,-32.22736 71.40404,-59.66667 112.62754,-81.988723 23.2677,-12.599136 47.36039,-23.336814 72.34452,-31.957373 25.408,-8.767076 51.33907,-15.719209 77.91581,-20.111755 22.61697,-3.738107 45.24912,-7.401304 68.25602,-7.313445 24.8704,0.09492 49.796,-0.47871 74.5961,0.966632 41.0579,2.392883 81.0928,10.873464 120.2248,23.558404 41.0874,13.318678 80.0728,31.243168 115.7509,55.48901 21.2779,14.46001 41.1604,30.98737 61.4266,46.89413 7.8584,6.16791 15.0283,13.20629 22.5466,19.80885 3.0715,2.69723 2.9038,5.01076 0,7.93617 -20.8342,21.01412 -41.597,42.09974 -62.2493,63.29182 -2.9063,2.98227 -4.6787,3.36331 -7.9872,0.27233 -25.6619,-23.97364 -52.9506,-45.89102 -83.347,-63.7012 -29.8535,-17.49191 -61.4109,-31.04098 -94.8385,-40.15557 -20.9505,-5.71257 -42.2323,-9.58702 -63.793,-12.28869 -27.2515,-3.41485 -54.5754,-3.68808 -81.8846,-2.24531 -22.86981,1.20824 -45.52904,4.55988 -67.95769,9.50064 -29.46071,6.49002 -57.93281,15.78951 -85.19578,28.64785 -23.82064,11.23478 -46.04197,25.1711 -67.13688,40.87612 -22.07394,16.43372 -42.78219,34.45908 -61.70078,54.44116 -25.03448,26.44182 -46.44752,55.52459 -64.07825,87.43412 -20.33255,36.7995 -33.96358,75.94266 -42.47501,116.96942 -3.94771,19.02846 -5.74035,38.2947 -6.24677,57.70271 -0.29611,11.35265 -1.03855,22.69984 -1.09068,34.0516 -0.1344,29.31893 3.33481,58.23113 9.54081,86.91338 8.45368,39.06887 22.20701,76.10334 41.52744,111.04949 12.05476,21.80396 26.52688,42.03844 42.34224,61.27454 26.44314,32.16238 56.82469,60.09141 90.92814,84.07112 28.72019,20.1946 59.46712,36.55078 92.43411,48.47204 23.38996,8.45825 47.35978,15.24689 72.1094,18.67518 14.55966,2.01668 29.17222,3.65278 44.1948,5.46742 z" id="path1051" style="fill:#ed1e23;fill-opacity:1;stroke-width:0.910953"/>
      <path opacity="1" stroke="none" d="M 1383.079 240.378 C 1386.718 236.925 1389.918 233.945 1393.837 230.294 C 1471.645 444.507 1549.117 657.796 1626.944 872.063 C 1598.82 872.063 1571.483 872.22 1544.155 871.762 C 1542.003 871.728 1538.944 867.807 1537.962 865.115 C 1526.873 834.73 1515.967 804.279 1505.385 773.722 C 1503.484 768.233 1501.128 766.082 1494.841 766.105 C 1423.863 766.368 1352.883 766.356 1281.904 766.143 C 1276.04 766.121 1273.813 768.165 1272.013 773.34 C 1261.393 803.874 1250.213 834.222 1239.637 864.77 C 1237.684 870.413 1235.163 872.306 1228.959 872.209 C 1203.091 871.81 1177.212 872.038 1150.257 872.038 C 1158.35 849.765 1166.097 828.456 1173.836 807.144 C 1225.945 663.621 1278.053 520.096 1330.163 376.572 C 1345.079 335.488 1359.914 294.374 1375.045 253.364 C 1376.7 248.88 1380.068 245 1383.079 240.366 M 1322.14 632.729 C 1313.916 655.7 1305.693 678.671 1297.233 702.303 C 1358.404 702.303 1418.54 702.303 1479.952 702.303 C 1449.619 617.232 1419.5 532.764 1388.574 446.029 C 1365.931 509.598 1344.235 570.506 1322.14 632.729 Z" id="path15" style="display: inline; fill-opacity: 1; stroke-width: 1.76894;"/>
      <path opacity="1" stroke="none" d="m 277.86484,229.37163 c 99.49568,0 198.13581,0 297.61023,0 -9.7783,15.41438 -20.52677,29.53456 -28.12562,45.18405 -6.70593,13.81078 -15.32281,17.79025 -30.22307,17.17734 -31.31687,-1.28814 -62.72367,-0.39182 -94.0934,-0.39182 -2.77492,0 -5.54998,0 -9.07072,0 0,193.70205 0,386.63451 0,579.9508 -18.61567,0 -36.48182,0 -55.09483,0 0,-193.02696 0,-385.94894 0,-579.62781 -61.32889,0 -121.922,0 -183.04132,0 0,-20.83852 0,-40.93152 0,-62.29315 33.61725,0 67.40007,0 102.03873,0 z" id="path2468" style="fill-opacity: 1; stroke-width: 1.71158; fill: rgb(1, 1, 1);"/>
    </g>
  </g>
</svg>